<?xml version="1.0" encoding="UTF-8"?>
<svg width="163px" height="259px" viewBox="0 0 163 259" version="1.1" xmlns="http://www.w3.org/2000/svg" xmlns:xlink="http://www.w3.org/1999/xlink">
    <!-- Generator: Sketch 59.1 (86144) - https://sketch.com -->
    <title>Juventus_FC_2017_logo</title>
    <desc>Created with Sketch.</desc>
    <g id="Page-1" stroke="none" stroke-width="1" fill="none" fill-rule="evenodd">
        <g id="Juventus_FC_2017_logo" fill="#FFFFFF" fill-rule="nonzero">
            <path d="M129.6,135.8 C129.6,198.4 103.1,214.2 49.4,240.8 C56.3,245.4 65.6,250.9 81.4,258.4 C122.8,238.8 162.8,213.1 162.8,144.6 L162.8,0.1 L129.6,0.1 L129.6,135.8 L129.6,135.8 Z M98.1,0.1 L0,0.1 L0,28.8 L65,28.8 L65,120.7 C65,162.7 62.5,166.6 7.9,191.2 C11.7,200.8 17.2,210.2 24.4,218.7 C86.1,191.2 98.1,177 98.1,129.4 L98.1,0.1 Z" id="Shape"></path>
        </g>
    </g>
</svg>